HIERARCHY
ROOT Hips
{
	OFFSET 49.327999 -14.300216 94.065903
	CHANNELS 6 Xposition Yposition Zposition Xrotation Yrotation Zrotation
	JOINT spine
	{
		OFFSET 0.000000 -0.448574 7.800583
		CHANNELS 3 Xrotation Yrotation Zrotation
		JOINT spine1
		{
			OFFSET 0.000000 -0.000002 10.136398
			CHANNELS 3 Xrotation Yrotation Zrotation
			JOINT spine2
			{
				OFFSET 0.000000 -0.000002 9.712509
				CHANNELS 3 Xrotation Yrotation Zrotation
				JOINT Neck
				{
					OFFSET 0.000000 -1.188873 24.936096
					CHANNELS 3 Xrotation Yrotation Zrotation
					JOINT Head
					{
						OFFSET 0.000000 -0.000001 7.533844
						CHANNELS 3 Xrotation Yrotation Zrotation
						End Site
						{
							OFFSET 0.000000 6.014017 18.236099
						}
					}
				}
				JOINT RightShoulder
				{
					OFFSET -4.089649 0.569455 10.488800
					CHANNELS 3 Xrotation Yrotation Zrotation
					JOINT RightArm
					{
						OFFSET 0.000000 -0.000002 13.757004
						CHANNELS 3 Xrotation Yrotation Zrotation
						JOINT RightArmRoll
						{
							OFFSET 0.000000 -0.000001 6.944778
							CHANNELS 3 Xrotation Yrotation Zrotation
							JOINT RightForeArm
							{
								OFFSET 0.000000 -0.000004 20.227692
								CHANNELS 3 Xrotation Yrotation Zrotation
								JOINT RightForeArmRoll
								{
									OFFSET 0.000000 -0.000001 7.793121
									CHANNELS 3 Xrotation Yrotation Zrotation
									JOINT RightHand
									{
										OFFSET 0.000000 -0.000003 15.639099
										CHANNELS 3 Xrotation Yrotation Zrotation
										End Site
										{
											OFFSET 0.000000 0.000000 0.100006
										}
									}
								}
							}
						}
					}
				}
				JOINT LeftShoulder
				{
					OFFSET 4.089649 0.569455 10.488800
					CHANNELS 3 Xrotation Yrotation Zrotation
					JOINT LeftArm
					{
						OFFSET 0.000000 -0.000002 13.757004
						CHANNELS 3 Xrotation Yrotation Zrotation
						JOINT LeftArmRoll
						{
							OFFSET 0.000000 -0.000001 6.944778
							CHANNELS 3 Xrotation Yrotation Zrotation
							JOINT LeftForeArm
							{
								OFFSET 0.000000 -0.000004 20.227692
								CHANNELS 3 Xrotation Yrotation Zrotation
								JOINT LeftForeArmRoll
								{
									OFFSET 0.000000 -0.000001 7.793121
									CHANNELS 3 Xrotation Yrotation Zrotation
									JOINT LeftHand
									{
										OFFSET 0.000000 -0.000003 15.639099
										CHANNELS 3 Xrotation Yrotation Zrotation
										End Site
										{
											OFFSET 0.000000 0.000000 0.100006
										}
									}
								}
							}
						}
					}
				}
			}
		}
	}
	JOINT RightUpLeg
	{
		OFFSET -6.914150 1.063581 -1.267883
		CHANNELS 3 Xrotation Yrotation Zrotation
		JOINT RightUpLegRoll
		{
			OFFSET 0.000000 -0.000003 18.337799
			CHANNELS 3 Xrotation Yrotation Zrotation
			JOINT RightLeg
			{
				OFFSET 0.000000 0.000004 -22.708496
				CHANNELS 3 Xrotation Yrotation Zrotation
				JOINT RightLegRoll
				{
					OFFSET 0.000000 -0.000004 22.782799
					CHANNELS 3 Xrotation Yrotation Zrotation
					JOINT RightFoot
					{
						OFFSET 0.000000 -0.000003 18.962898
						CHANNELS 3 Xrotation Yrotation Zrotation
						JOINT RightToeBase
						{
							OFFSET 0.000000 -0.000003 15.852005
							CHANNELS 3 Xrotation Yrotation Zrotation
							End Site
							{
								OFFSET 0.006718 0.884892 7.677002
							}
						}
					}
				}
			}
		}
	}
	JOINT LeftUpLeg
	{
		OFFSET 6.914150 1.063581 -1.267883
		CHANNELS 3 Xrotation Yrotation Zrotation
		JOINT LeftUpLegRoll
		{
			OFFSET 0.000000 -0.000003 18.337898
			CHANNELS 3 Xrotation Yrotation Zrotation
			JOINT LeftLeg
			{
				OFFSET 0.000000 -0.000004 22.708397
				CHANNELS 3 Xrotation Yrotation Zrotation
				JOINT LeftLegRoll
				{
					OFFSET 0.000000 -0.000004 22.993393
					CHANNELS 3 Xrotation Yrotation Zrotation
					JOINT LeftFoot
					{
						OFFSET 0.000000 -0.000003 18.752197
						CHANNELS 3 Xrotation Yrotation Zrotation
						JOINT LeftToeBase
						{
							OFFSET 0.000000 -0.000003 15.852005
							CHANNELS 3 Xrotation Yrotation Zrotation
							End Site
							{
								OFFSET -0.030113 0.884892 7.677002
							}
						}
					}
				}
			}
		}
	}
}
MOTION
Frames: 5
Frame Time: 0.041667
48.973900 -14.487218 94.122101 -7.196654 0.196254 -2.142469 -1.041707 0.899451 0.144956 1.916434 1.797545 0.298615 3.561850 1.800927 0.277051 6.625100 -11.889666 -3.294083 -2.739813 -10.226842 -1.340639 -16.317590 -26.875555 -18.609953 54.618485 6.540735 78.895194 0.000004 0.000011 0.000004 69.627584 -1.651304 0.955265 0.000001 0.000001 -3.007040 -5.000181 -7.998765 0.000151 -6.933629 65.169997 8.666865 -18.842651 105.628684 8.712743 -0.000000 0.000000 0.000001 18.625378 6.510271 0.212906 0.000001 0.000014 3.000001 -5.000183 7.999409 -0.000086 3.997151 -179.092218 -0.196094 -179.999991 0.000005 -1.136006 168.789329 -0.785717 -0.700726 -0.000003 -0.000002 0.225108 72.369666 6.491895 3.030111 25.460896 -7.355620 0.000002 5.166899 -179.919327 5.981174 -0.000005 -0.000004 -1.431770 -10.598938 5.397698 0.661992 -0.000002 -0.000002 -0.202601 73.318795 -7.609043 0.288046 25.456959 7.355615 -0.000001 
48.970501 -14.482218 94.122108 -7.196075 0.201151 -2.145252 -1.042504 0.897741 0.145910 1.914689 1.794109 0.300532 3.560104 1.797527 0.279009 6.678280 -11.883646 -3.296073 -2.813340 -10.256583 -1.352946 -16.302275 -26.879019 -18.587759 54.603360 6.518965 79.002578 0.000003 0.000012 0.000003 69.357976 -1.650050 0.957107 0.000002 0.000001 -3.007037 -5.000178 -7.998764 0.000149 -6.881780 65.190180 8.609301 -18.837216 105.596746 8.677744 0.000000 -0.000000 -0.000000 18.598800 6.502804 0.214709 0.000000 0.000014 3.000001 -5.000185 7.999407 -0.000086 3.991972 -179.099185 -0.197091 -179.999991 0.000005 -1.136006 168.785818 -0.790611 -0.700749 -0.000002 -0.000002 0.225412 72.369222 6.495430 3.023188 25.460894 -7.355612 -0.000004 5.158309 -179.925310 5.977015 -0.000005 -0.000004 -1.431749 -10.610776 5.396606 0.662828 -0.000001 -0.000002 -0.203048 73.323057 -7.610195 0.291867 25.456959 7.355615 -0.000001 
48.965900 -14.510618 94.121208 -7.195049 0.205997 -2.147554 -1.043395 0.896053 0.146848 1.912813 1.790722 0.302418 3.558227 1.794177 0.280936 6.731087 -11.877426 -3.298043 -2.886866 -10.286207 -1.365298 -16.287247 -26.882940 -18.565914 54.585953 6.491782 79.110366 0.000004 0.000014 0.000005 69.090574 -1.648345 0.958910 0.000001 0.000001 -3.007040 -5.000181 -7.998756 0.000147 -6.828923 65.210275 8.550609 -18.831448 105.564781 8.641522 -0.000000 -0.000000 0.000000 18.571407 6.494869 0.216593 -0.000000 0.000014 3.000001 -5.000186 7.999408 -0.000087 3.986486 -179.105168 -0.198162 -179.999991 0.000005 -1.136006 168.782512 -0.795507 -0.699759 -0.000003 -0.000002 0.225705 72.368661 6.498939 3.016467 25.460893 -7.355611 0.000006 5.148977 -179.931293 5.972963 -0.000005 -0.000004 -1.431731 -10.623009 5.395438 0.663682 -0.000001 -0.000002 -0.203486 73.327388 -7.611247 0.295303 25.456960 7.355615 -0.000001 
48.960300 -14.500017 94.121796 -7.193609 0.210775 -2.149427 -1.044335 0.894401 0.147756 1.910881 1.787406 0.304241 3.556289 1.790887 0.282799 6.782687 -11.870930 -3.300085 -2.959525 -10.315318 -1.377602 -16.272613 -26.887200 -18.544741 54.566566 6.459007 79.218774 0.000005 0.000012 0.000004 68.826170 -1.646216 0.960699 0.000001 -0.000001 -3.007036 -5.000180 -7.998762 0.000149 -6.776108 65.230260 8.491944 -18.825811 105.532823 8.604712 0.000000 0.000000 0.000001 18.543388 6.486451 0.218546 0.000001 0.000014 3.000000 -5.000181 7.999407 -0.000086 3.980756 -179.112149 -0.199490 -179.999991 0.000005 -1.136006 168.779384 -0.800402 -0.699778 -0.000003 -0.000002 0.225985 72.368054 6.502327 3.009729 25.460792 -7.355618 -0.000006 5.138996 -179.937249 5.968983 -0.000005 -0.000004 -1.431700 -10.635445 5.394237 0.664535 -0.000002 -0.000001 -0.203908 73.331773 -7.612172 0.298567 25.456965 7.355617 -0.000001 
48.954700 -14.501520 94.122902 -7.191793 0.215464 -2.150942 -1.045286 0.892793 0.148616 1.908946 1.784180 0.305968 3.554351 1.787687 0.284567 6.832240 -11.864375 -3.302262 -3.030505 -10.343925 -1.389793 -16.258686 -26.891677 -18.524569 54.545296 6.420618 79.328091 0.000005 0.000007 0.000003 68.565667 -1.643656 0.962516 0.000001 0.000001 -3.007039 -5.000183 -7.998766 0.000152 -6.724197 65.249569 8.434268 -18.819661 105.501868 8.566851 -0.000000 0.000001 -0.000001 18.514946 6.477541 0.220573 0.000000 0.000014 3.000000 -5.000185 7.999408 -0.000086 3.974846 -179.119116 -0.201048 -179.999991 0.000005 -1.136006 168.776679 -0.805299 -0.698795 -0.000002 -0.000002 0.226247 72.367295 6.505566 3.003277 25.460795 -7.355619 -0.000007 5.128494 -179.944230 5.964984 -0.000005 -0.000004 -1.431680 -10.648081 5.393042 0.665391 -0.000002 -0.000002 -0.204312 73.336028 -7.613048 0.301526 25.456959 7.355616 -0.000001 
